<?xml version="1.0" encoding="UTF-8" standalone="no"?>
<svg
   xmlns:dc="http://purl.org/dc/elements/1.1/"
   xmlns:cc="http://creativecommons.org/ns#"
   xmlns:rdf="http://www.w3.org/1999/02/22-rdf-syntax-ns#"
   xmlns:svg="http://www.w3.org/2000/svg"
   xmlns="http://www.w3.org/2000/svg"
   xmlns:sodipodi="http://sodipodi.sourceforge.net/DTD/sodipodi-0.dtd"
   xmlns:inkscape="http://www.inkscape.org/namespaces/inkscape"
   inkscape:version="1.1-dev (e75a8e00e8, 2019-12-28)"
   sodipodi:docname="profit-final.svg"
   xml:space="preserve"
   style="enable-background:new 0 0 64 64;"
   viewBox="0 0 64 64"
   height="64px"
   width="64px"
   y="0px"
   x="0px"
   id="Capa_1"
   version="1.1"><metadata
   id="metadata46"><rdf:RDF><cc:Work
       rdf:about=""><dc:format>image/svg+xml</dc:format><dc:type
         rdf:resource="http://purl.org/dc/dcmitype/StillImage" /></cc:Work></rdf:RDF></metadata><defs
   id="defs44" /><sodipodi:namedview
   inkscape:current-layer="Capa_1"
   inkscape:window-maximized="1"
   inkscape:window-y="39"
   inkscape:window-x="55"
   inkscape:cy="32.469897"
   inkscape:cx="32"
   inkscape:zoom="7.09375"
   showgrid="false"
   id="namedview42"
   inkscape:window-height="704"
   inkscape:window-width="1311"
   inkscape:pageshadow="2"
   inkscape:pageopacity="0"
   guidetolerance="10"
   gridtolerance="10"
   objecttolerance="10"
   borderopacity="1"
   inkscape:document-rotation="0"
   bordercolor="#666666"
   pagecolor="#ffffff" />

<g
   id="g11">
</g>
<g
   id="g13">
</g>
<g
   id="g15">
</g>
<g
   id="g17">
</g>
<g
   id="g19">
</g>
<g
   id="g21">
</g>
<g
   id="g23">
</g>
<g
   id="g25">
</g>
<g
   id="g27">
</g>
<g
   id="g29">
</g>
<g
   id="g31">
</g>
<g
   id="g33">
</g>
<g
   id="g35">
</g>
<g
   id="g37">
</g>
<g
   id="g39">
</g>
<path
   inkscape:connector-curvature="0"
   id="path48"
   d="M 27.954185,63.666029 C 20.695727,62.635381 14.576567,59.617385 9.5448302,54.586456 6.779646,51.821715 4.9353532,49.273829 3.3622455,46.045228 1.2690497,41.749212 0.29744051,37.822172 0.15217776,33.070808 0.02617042,28.949264 0.49445626,25.669524 1.7515847,21.869016 5.0471684,11.905921 13.402927,4.0101159 23.611727,1.2121944 26.37081,0.45601395 28.80061,0.13476559 31.830837,0.12553118 34.648259,0.11694529 36.209405,0.27190145 38.737943,0.81111589 49.591268,3.1256048 58.646375,11.200208 62.194825,21.728047 c 1.202404,3.567392 1.69017,6.565843 1.685492,10.361233 -0.0084,6.808295 -2.091781,13.182021 -6.115841,18.710227 -4.912802,6.749148 -12.279487,11.276348 -20.719745,12.733326 -1.872171,0.323179 -7.202533,0.40128 -9.090546,0.133196 z M 43.076122,45.766368 c 0.888842,-0.537491 0.898295,-0.590541 2.008677,-11.272712 l 1.024913,-9.859943 -0.30748,-0.579606 c -0.324335,-0.611379 -0.918974,-1.057338 -1.409846,-1.057338 -0.196127,0 -0.586788,-0.362077 -1.176487,-1.090409 -1.257499,-1.553123 -2.228538,-2.570895 -2.671294,-2.799853 -0.315567,-0.163186 -1.824877,-0.197843 -8.616012,-0.197843 h -8.233425 l -0.61939,0.475944 c -0.340665,0.261769 -1.190315,1.181203 -1.888113,2.043187 -0.846538,1.045724 -1.362541,1.567709 -1.550661,1.568638 -0.392848,0.0019 -1.136726,0.480253 -1.420543,0.913413 -0.15095,0.230379 -0.233995,0.631327 -0.227677,1.099241 0.02102,1.556823 2.008989,19.586105 2.200452,19.956352 0.259525,0.501869 0.669748,0.858179 1.159494,1.007113 0.221547,0.06737 5.097085,0.111287 10.83453,0.09759 10.120572,-0.02417 10.445472,-0.03323 10.892862,-0.30377 z"
   style="fill:#ffffff;stroke-width:0.140969" /><path
   inkscape:connector-curvature="0"
   id="path50"
   d="m 22.039618,43.543025 c -0.09094,-0.54025 -1.909222,-17.881201 -1.909222,-18.208273 0,-0.202183 1.132632,-0.223445 11.903032,-0.223445 H 43.93646 l -0.06539,0.45815 c -0.107055,0.750049 -1.89045,17.895691 -1.89045,18.174871 0,0.246053 -0.417399,0.256847 -9.931939,0.256847 H 22.11674 Z m 11.229214,-5.621182 c 2.095807,-0.445034 3.864977,-2.033165 4.478798,-4.020485 0.213031,-0.689714 0.28585,-1.316719 0.28585,-2.461288 v -1.535812 h -1.042054 -1.042055 l -0.05114,1.585904 c -0.04721,1.464101 -0.08467,1.64545 -0.487781,2.361233 -1.343565,2.385703 -4.409157,2.764793 -6.245733,0.772343 -0.829451,-0.899847 -1.023668,-1.46287 -1.105256,-3.204061 l -0.07101,-1.515419 H 26.94929 25.910129 v 1.249482 c 0,2.31693 0.438134,3.629039 1.655937,4.959144 1.457594,1.59201 3.569546,2.261936 5.702763,1.808959 z"
   style="fill:#ffffff;stroke-width:0.140969" /><path
   inkscape:connector-curvature="0"
   id="path52"
   d="m 22.808811,22.423471 c 0.348898,-0.308702 1.009251,-0.75005 1.467449,-0.980773 l 0.833089,-0.419497 h 6.927779 6.927779 l 0.697283,0.35304 c 0.383505,0.194172 1.036617,0.638225 1.451359,0.986784 l 0.754078,0.633744 -9.846588,-0.006 -9.84659,-0.006 z"
   style="fill:#ffffff;stroke-width:0.140969" /></svg>
