<?xml version="1.0" encoding="UTF-8" standalone="no"?>
<svg
   xmlns:dc="http://purl.org/dc/elements/1.1/"
   xmlns:cc="http://creativecommons.org/ns#"
   xmlns:rdf="http://www.w3.org/1999/02/22-rdf-syntax-ns#"
   xmlns:svg="http://www.w3.org/2000/svg"
   xmlns="http://www.w3.org/2000/svg"
   xmlns:sodipodi="http://sodipodi.sourceforge.net/DTD/sodipodi-0.dtd"
   xmlns:inkscape="http://www.inkscape.org/namespaces/inkscape"
   inkscape:version="1.1-dev (e75a8e00e8, 2019-12-28)"
   sodipodi:docname="profit.svg"
   xml:space="preserve"
   style="enable-background:new 0 0 64 64;"
   viewBox="0 0 64 64"
   height="64px"
   width="64px"
   y="0px"
   x="0px"
   id="Capa_1"
   version="1.1"><metadata
   id="metadata46"><rdf:RDF><cc:Work
       rdf:about=""><dc:format>image/svg+xml</dc:format><dc:type
         rdf:resource="http://purl.org/dc/dcmitype/StillImage" /></cc:Work></rdf:RDF></metadata><defs
   id="defs44" /><sodipodi:namedview
   inkscape:current-layer="Capa_1"
   inkscape:window-maximized="1"
   inkscape:window-y="39"
   inkscape:window-x="55"
   inkscape:cy="23.964758"
   inkscape:cx="32"
   inkscape:zoom="7.09375"
   showgrid="false"
   id="namedview42"
   inkscape:window-height="704"
   inkscape:window-width="1311"
   inkscape:pageshadow="2"
   inkscape:pageopacity="0"
   guidetolerance="10"
   gridtolerance="10"
   objecttolerance="10"
   borderopacity="1"
   inkscape:document-rotation="0"
   bordercolor="#666666"
   pagecolor="#ffffff" />

<g
   id="g11">
</g>
<g
   id="g13">
</g>
<g
   id="g15">
</g>
<g
   id="g17">
</g>
<g
   id="g19">
</g>
<g
   id="g21">
</g>
<g
   id="g23">
</g>
<g
   id="g25">
</g>
<g
   id="g27">
</g>
<g
   id="g29">
</g>
<g
   id="g31">
</g>
<g
   id="g33">
</g>
<g
   id="g35">
</g>
<g
   id="g37">
</g>
<g
   id="g39">
</g>
<path
   inkscape:connector-curvature="0"
   id="path48"
   d="M 29.431275,63.831063 C 20.778188,63.048699 13.057726,59.01887 7.446933,52.355953 5.9952113,50.632008 4.4569052,48.247798 3.3536336,46.011779 -0.81593444,37.561245 -0.98231326,27.563383 2.902424,18.898164 5.508946,13.084107 10.215701,7.8408997 15.831194,4.4958386 c 7.550398,-4.49765403 16.904424,-5.6081654 25.4416,-3.020431 10.64166,3.2256322 18.89281,11.8647034 21.635246,22.6524104 0.725031,2.851992 0.971047,4.843499 0.96899,7.843988 -0.0026,3.770869 -0.438172,6.500373 -1.603773,10.049659 C 58.499035,53.514074 48.5916,61.779499 36.3941,63.611536 c -1.781153,0.267525 -5.229483,0.376245 -6.962825,0.219527 z m 1.379529,-15.048684 c 0.342386,-0.185335 1.359973,-1.596652 4.091069,-5.674009 1.999429,-2.985022 4.186626,-6.188546 4.86044,-7.118943 1.644205,-2.270305 2.397371,-3.735756 2.2729,-4.422434 -0.194088,-1.070735 -0.764062,-1.84122 -1.746226,-2.360528 -0.430906,-0.227836 -0.917405,-0.267278 -3.84141,-0.311424 -1.84141,-0.0278 -3.348018,-0.07837 -3.348018,-0.112368 0,-0.034 0.436707,-1.693351 0.97046,-3.687444 1.050085,-3.923101 1.991757,-7.850941 1.986797,-8.287201 -0.0067,-0.586778 -0.520082,-1.419145 -1.022352,-1.657488 -1.179145,-0.559541 -2.150133,-0.137386 -3.226286,1.402686 -2.187795,3.130934 -9.155615,13.616911 -9.491843,14.284418 -0.335191,0.665448 -0.37782,0.887162 -0.31678,1.647582 0.08391,1.045306 0.460114,1.730567 1.204027,2.19313 0.502385,0.312384 0.651433,0.325898 4.060435,0.368168 l 3.538905,0.04388 -0.619556,2.141142 c -0.340758,1.177627 -0.942281,3.409864 -1.336719,4.960524 -0.639677,2.514772 -0.719015,2.991885 -0.734327,4.415993 l -0.01717,1.596612 0.460374,0.412199 c 0.372084,0.333151 0.588784,0.412201 1.129953,0.412201 0.370098,0 0.873418,-0.110339 1.125323,-0.246696 z"
   style="fill:#ffffff;stroke-width:0.140969" /><path
   inkscape:connector-curvature="0"
   id="path50"
   d="m 29.495101,46.432506 c -0.05836,-0.232533 0.501499,-2.111625 1.759429,-5.905259 2.01486,-6.076368 2.123214,-6.598442 1.499014,-7.222641 L 32.407529,32.95859 h -3.818983 -3.818983 l -0.346015,-0.346016 c -0.190308,-0.190308 -0.344933,-0.459911 -0.343611,-0.599118 0.0032,-0.333397 0.523743,-1.189333 1.917175,-3.152235 0.629337,-0.886535 2.430704,-3.705274 4.003038,-6.263864 1.572335,-2.55859 2.980685,-4.826432 3.129668,-5.039648 0.399652,-0.571959 1.238464,-0.463315 1.238464,0.160408 0,0.115361 -0.761234,2.636012 -1.69163,5.601447 -1.481317,4.721372 -1.69163,5.51337 -1.69163,6.370348 0,0.737782 0.05731,1.026268 0.232835,1.172122 0.182222,0.151416 1.093467,0.202956 4.191997,0.237099 3.385481,0.0373 3.995174,0.07622 4.207694,0.268546 0.590071,0.534006 0.599443,0.517003 -5.033028,9.132762 -2.078147,3.178854 -3.874888,5.890748 -3.99276,6.026431 -0.117871,0.135683 -0.393579,0.246696 -0.612685,0.246696 -0.303826,0 -0.418689,-0.08095 -0.483974,-0.341062 z"
   style="fill:#ffffff;stroke-width:0.140969" /></svg>
